<?xml version="1.0" standalone="no"?>
<!DOCTYPE svg PUBLIC "-//W3C//DTD SVG 20010904//EN"
 "http://www.w3.org/TR/2001/REC-SVG-20010904/DTD/svg10.dtd">
<svg version="1.0" xmlns="http://www.w3.org/2000/svg"
 width="460.000000pt" height="460.000000pt" viewBox="0 0 460.000000 460.000000"
 preserveAspectRatio="xMidYMid meet">
<metadata>
Created by potrace 1.11, written by Peter Selinger 2001-2013
</metadata>
<g transform="translate(0.000000,460.000000) scale(0.100000,-0.100000)"
fill="#000000" stroke="none">
<path d="M1210 4428 c0 -88 17 -259 39 -391 10 -61 17 -116 14 -122 -2 -5 -25
-27 -49 -48 -115 -95 -212 -252 -256 -412 -32 -119 -30 -279 4 -405 15 -52 40
-121 57 -154 17 -32 31 -64 31 -71 0 -8 -15 -60 -34 -117 -73 -222 -103 -526
-72 -734 35 -239 98 -397 223 -559 l54 -70 -458 -5 c-408 -5 -462 -7 -493 -22
-110 -55 -169 -161 -156 -282 10 -98 68 -176 163 -218 39 -17 82 -18 759 -18
l717 0 -7 -58 c-10 -89 -47 -154 -140 -240 -183 -172 -220 -215 -244 -283 -19
-54 -29 -109 -19 -109 1 0 27 9 57 21 301 115 537 142 610 70 8 -8 46 -29 85
-48 85 -40 190 -52 303 -34 60 9 89 21 161 65 48 29 105 56 127 59 82 13 288
-31 507 -109 66 -23 67 -23 67 -3 0 35 -40 141 -67 176 -15 19 -74 78 -132
131 -158 144 -194 197 -207 306 l-7 55 719 1 719 0 52 26 c146 71 197 258 107
392 -29 43 -53 64 -109 95 -39 22 -49 22 -498 27 l-458 5 58 75 c60 78 139
227 168 315 32 95 57 250 62 385 8 195 -23 398 -97 637 l-23 72 26 53 c68 141
92 243 91 388 -2 226 -109 457 -278 597 -52 44 -55 60 -31 194 18 104 35 283
35 366 l0 62 -27 -5 c-67 -12 -221 -136 -299 -240 -16 -22 -48 -62 -70 -90
-23 -29 -43 -57 -45 -63 -3 -8 -43 -13 -116 -15 -179 -6 -338 -62 -481 -169
l-52 -39 -53 39 c-28 21 -74 52 -102 67 -116 65 -324 114 -437 104 -42 -5 -50
-2 -60 16 -13 24 -100 138 -137 179 -111 121 -208 196 -273 211 l-28 6 0 -62z
m653 -632 c130 -25 257 -108 343 -223 18 -24 65 -135 89 -208 6 -15 10 -9 20
30 39 145 122 257 250 334 245 149 576 78 734 -158 20 -31 43 -72 51 -91 7
-19 17 -39 21 -45 4 -5 13 -47 20 -92 10 -67 10 -99 0 -164 -7 -45 -16 -89
-21 -98 -5 -9 -18 -37 -29 -63 -32 -76 -125 -183 -190 -217 -14 -8 -28 -17
-31 -21 -3 -3 -36 -19 -75 -35 -65 -27 -79 -29 -200 -30 -118 0 -136 3 -192
27 -34 14 -82 40 -106 57 l-45 31 -39 -73 c-21 -39 -64 -125 -97 -189 -32 -65
-62 -118 -66 -118 -5 0 -50 83 -102 185 -51 102 -96 185 -101 185 -4 0 -25
-11 -46 -24 -90 -57 -160 -78 -276 -84 -100 -4 -117 -2 -188 22 -151 51 -262
145 -323 276 -14 30 -29 62 -34 71 -5 9 -14 53 -21 98 -15 100 -2 201 39 299
32 76 45 94 123 173 71 71 173 127 264 144 93 18 139 18 228 1z m-226 -2753
c-3 -10 -5 -4 -5 12 0 17 2 24 5 18 2 -7 2 -21 0 -30z m133 -73 c0 -5 -5 -10
-11 -10 -5 0 -7 5 -4 10 3 6 8 10 11 10 2 0 4 -4 4 -10z m807 -6 c-3 -3 -12
-4 -19 -1 -8 3 -5 6 6 6 11 1 17 -2 13 -5z"/>
<path d="M1656 3514 c-65 -20 -138 -95 -161 -165 -24 -70 -15 -165 20 -224 92
-157 305 -185 432 -56 53 53 76 112 75 192 -1 81 -16 119 -71 181 -71 79 -181
106 -295 72z"/>
<path d="M2760 3517 c-53 -13 -139 -92 -164 -152 -22 -53 -21 -169 3 -221 44
-97 139 -156 251 -155 84 0 128 18 187 77 55 56 73 92 80 168 8 88 -15 152
-76 215 -72 74 -164 96 -281 68z"/>
</g>
</svg>
